<svg xmlns="http://www.w3.org/2000/svg" version="1.1" xmlns:xlink="http://www.w3.org/1999/xlink" xmlns:svgjs="http://svgjs.com/svgjs" width="1440" height="560" preserveAspectRatio="none" viewBox="0 0 1440 560"><g mask="url(&quot;#SvgjsMask1000&quot;)" fill="none"><rect width="1440" height="560" x="0" y="0" fill="#0e2a47"></rect><path d="M 0,80 C 57.6,103 172.8,199 288,195 C 403.2,191 460.8,62.6 576,60 C 691.2,57.4 748.8,189.4 864,182 C 979.2,174.6 1036.8,17.6 1152,23 C 1267.2,28.4 1382.4,171.8 1440,209L1440 560L0 560z" fill="#184a7e"></path><path d="M 0,440 C 96,408.2 288,265.4 480,281 C 672,296.6 768,504.4 960,518 C 1152,531.6 1344,382.8 1440,349L1440 560L0 560z" fill="#2264ab"></path></g><defs><mask id="SvgjsMask1000"><rect width="1440" height="560" fill="#ffffff"></rect></mask></defs></svg>